<?xml version="1.0" encoding="UTF-8" standalone="no"?>
<svg
   id="Layer_1"
   data-name="Layer 1"
   viewBox="0 0 934.2751 878.08"
   version="1.1"
   sodipodi:docname="SKY CRANE.svg"
   inkscape:version="1.3.2 (091e20ef0f, 2023-11-25)"
   xmlns:inkscape="http://www.inkscape.org/namespaces/inkscape"
   xmlns:sodipodi="http://sodipodi.sourceforge.net/DTD/sodipodi-0.dtd"
   xmlns="http://www.w3.org/2000/svg"
   xmlns:svg="http://www.w3.org/2000/svg">
  <sodipodi:namedview
     id="namedview17"
     pagecolor="#ffffff"
     bordercolor="#000000"
     borderopacity="0.25"
     inkscape:showpageshadow="2"
     inkscape:pageopacity="0.0"
     inkscape:pagecheckerboard="0"
     inkscape:deskcolor="#d1d1d1"
     inkscape:zoom="0.64327949"
     inkscape:cx="467.13754"
     inkscape:cy="438.37866"
     inkscape:window-width="1276"
     inkscape:window-height="1058"
     inkscape:window-x="2924"
     inkscape:window-y="1940"
     inkscape:window-maximized="1"
     inkscape:current-layer="Layer_1" />
  <defs
     id="defs2">
    <style
       id="style1">.cls-1{fill:#fff;}.cls-2{fill:#0c515f;}.cls-3{fill:#1ed494;}.cls-4{fill:#17b383;}.cls-5{fill:#d4e8e9;}.cls-6{fill:#fefefe;}.cls-7{fill:#5cbf05;}.cls-8{fill:#89e12a;}.cls-9{fill:url(#linear-gradient);}.cls-10{fill:#065264;}.cls-11{fill:#dbeff1;}</style>
    <linearGradient
       id="linear-gradient"
       x1="445.5152"
       y1="328.0319"
       x2="654.0511"
       y2="328.0319"
       gradientUnits="userSpaceOnUse"
       gradientTransform="translate(-31.799071,-36.014963)">
      <stop
         offset="0.1703"
         stop-color="#17b383"
         id="stop1" />
      <stop
         offset="1"
         stop-color="#1ed494"
         id="stop2" />
    </linearGradient>
  </defs>
  <title
     id="title2">SKY CRANE</title>
  <path
     class="cls-1"
     d="m 884.63413,590.74584 -76.9969,67.6816 -116.1263,45.6048 h -57.4322 l -78.07,60.9033 -63.9324,18.3025 -71.9479,6.3113 -49.8587,-29.0316 -27.7694,-41.124 h 4.948 q 3.2377,3.4081 6.8035,6.7278 l 1.1361,1.06 a 1.3836,1.3836 0 0 0 0.1388,0.1262 c 0.6311,0.5932 1.2875,1.1739 1.9438,1.7546 0.7826,0.7068 1.59,1.4137 2.411,2.1079 0.2019,0.1767 0.4039,0.3535 0.6311,0.5427 0.8078,0.6816 1.6283,1.3633 2.4613,2.0322 0.9341,0.77 1.8934,1.54 2.878,2.2973 0.05,0.0379 0.1136,0.0884 0.1767,0.1389 0.9088,0.7069 1.8176,1.4011 2.739,2.0827 0.1515,0.1136 0.3156,0.2272 0.48,0.3535 0.7952,0.5805 1.59,1.1612 2.3983,1.7166 0.1136,0.101 0.2524,0.1893 0.3913,0.29 0.7447,0.5175 1.4894,1.035 2.2467,1.54 q 4.5442,3.105 9.4921,5.9577 c 0.6564,0.3913 1.3127,0.7574 1.9818,1.1361 0.7573,0.4291 1.5146,0.8456 2.2846,1.25 0.2651,0.1514 0.53,0.29 0.8078,0.4291 1.0477,0.568 2.1206,1.1234 3.2062,1.6535 1.0728,0.5429 2.171,1.073 3.2818,1.5905 0.48,0.24 0.9593,0.4544 1.4516,0.6816 l 2.0069,0.9088 c 1.3885,0.6185 2.8022,1.2118 4.2286,1.7924 0.7068,0.29 1.4263,0.5806 2.1458,0.8584 0.7068,0.2776 1.4389,0.5554 2.1584,0.82 2.1711,0.8205 4.4052,1.59 6.6647,2.3225 0.7573,0.2525 1.5147,0.4923 2.2846,0.72 1.5273,0.48 3.08,0.9214 4.6451,1.3506 0.7826,0.2146 1.5778,0.4292 2.373,0.6311 0.7952,0.2146 1.59,0.4039 2.3982,0.6059 l 2.4236,0.568 q 1.2306,0.2839 2.4614,0.53 c 0.82,0.1767 1.6535,0.3533 2.4866,0.5048 0.5806,0.1136 1.1612,0.2273 1.7545,0.3408 3.3954,0.6185 6.8792,1.1613 10.4513,1.5905 0.7826,0.101 1.5526,0.1894 2.3352,0.2651 q 1.1171,0.1325 2.2341,0.2272 c 0.5428,0.0631 1.0856,0.1135 1.641,0.1514 0.6942,0.0631 1.3885,0.1262 2.0827,0.1768 0.3029,0.0252 0.5933,0.0378 0.8962,0.0631 0.72,0.05 1.439,0.101 2.1584,0.1388 a 2.4375,2.4375 0 0 0 0.303,0.0126 c 0.8961,0.0631 1.7924,0.101 2.7011,0.1389 0.9215,0.05 1.8556,0.0757 2.8023,0.101 0.1514,0.0126 0.3029,0.0126 0.467,0.0126 q 2.6128,0.0757 5.3014,0.0757 c 121.92,0 157.8941,-109.3861 157.8941,-109.3861 h 108.97 c 52.0676,0 140.9548,-58.9089 140.9548,-161.1506 0,-1.5526 -0.0252,-3.1177 -0.0631,-4.683 -0.0253,-0.7447 -0.0505,-1.5021 -0.0758,-2.2594 -0.0378,-0.9719 -0.0883,-1.9438 -0.1388,-2.9158 -0.0757,-1.2244 -0.1514,-2.4487 -0.2524,-3.6857 -0.24,-3.0925 -0.5554,-6.185 -0.972,-9.29 -0.0757,-0.6058 -0.1515,-1.2117 -0.2524,-1.8176 -0.2777,-2.0322 -0.5933,-4.077 -0.9593,-6.1092 -0.24,-1.3254 -0.4923,-2.6633 -0.7574,-3.9888 -0.3282,-1.666 -0.6816,-3.32 -1.06,-4.9858 a 89.1633,89.1633 0 0 1 5.8946,14.175 z"
     id="path2" />
  <path
     class="cls-2"
     d="m 935.33843,499.23324 c 0,61.56 -24.5884,119.0169 -69.2466,161.7691 a 228.4406,228.4406 0 0 1 -62.4809,42.5882 c -23.2,10.54 -46.905,16.1188 -68.5525,16.1188 h -72.2384 a 242.3025,242.3025 0 0 1 -25.56,34.7117 c -43.2824,48.8489 -101.75,74.6744 -169.065,74.6744 -37.7789,0 -72.9325,-8.192 -104.4507,-24.3361 a 223.1517,223.1517 0 0 1 -67.2145,-53.2035 248.9583,248.9583 0 0 1 -23.6544,-32.3766 c -8.7474,0.5427 -18.4035,0.8962 -28.6278,0.8962 -32.793,0 -62.7082,-3.6226 -88.95,-10.767 -39.0286,-10.6154 -70.130001,-29.0569 -92.421601,-54.794 l -0.5553,-0.6437 -0.5428,-0.669 c -40.8595,-50.0353 -60.7145001,-100.8028 -60.7145001,-155.2308 0,-57.7224 16.9772001,-95.0217 42.4619001,-133.2551 7.8637,-11.7893 22.3669,-28.2111 69.978801,-65.6745 9.795,-7.7124 21.0037,-16.3209 33.8534,-25.9644 25.8,-19.3628 50.2373,-36.908 64.3112,-46.905 a 705.6483,705.6483 0 0 1 36.2522,-62.6325 c 27.58,-42.1589 56.334,-73.904403 86.9434,-96.132503 52.3952,-38.0567 102.216,-42.4619 135.1227,-42.4619 40.253,0 81.1244,11.9282 118.1586,34.4971 31.2785,19.06 59.073,45.402903 78.3222,74.220003 27.5675,40.1267 40.5812,86.0977 38.0441,133.8862 a 367.4624,367.4624 0 0 1 47.0817,5.97 c 35.3681,7.0433 65.1192,19.7415 90.9573,38.8266 58.1011,42.8915 92.7875,112.7567 92.7875,186.8883 z"
     id="path3" />
  <path
     class="cls-1"
     d="m 876.01303,499.23324 c 0,102.2417 -88.8872,161.1506 -140.9548,161.1506 h -108.97 c -0.81,3.9983 -41.0324,113.4714 -163.6625,109.2978 -1.2164,-0.0382 -2.55,-0.0691 -5.5034,-0.24 a 2.4375,2.4375 0 0 1 -0.303,-0.0126 c -23.3913,-1.4184 -46.736,-7.1292 -68.5777,-18.921 a 157.4462,157.4462 0 0 1 -16.3965,-10.1737 160.1994,160.1994 0 0 1 -16.1189,-13.0264 c -2.2829,-2.1041 -5.0762,-4.7714 -8.0784,-7.9143 l 139.7052,-8.0531 c 30.8143,7.6311 26.8069,-29.6259 17.82,-40.9051 -29.9786,-23.0588 -57.0609,2.1648 -61.0266,15.0418 0.3661,-1.7546 4.2538,-52.4463 36.9964,-52.4463 l 25.2953,-3.9382 c 36.1254,0 80.5817,-4.5693 80.5817,-4.5693 0,-15.0459 -0.101,-20.0444 13.6322,-31.48 13.7206,-11.4359 25.5857,-29.9909 44.8349,-29.9909 l 86.3375,-15.7528 c 18.8327,0 7.5735,4.62 7.5735,-4.847 0,-9.467 7.4977,-21.2057 -32.4145,-21.2057 -24.9419,0 -29.9909,9.9124 -29.9909,9.9124 0,0 -24.3613,-42.1375 -2.12,-69.5913 22.2533,-27.4538 82.374,-70.206 115.1923,-70.206 29.2968,0 65.84,25.3756 81.6168,68.1233 v 0.0126 a 179.1606,179.1606 0 0 1 4.5314,39.7352 z"
     id="path4" />
  <path
     class="cls-2"
     d="m 302.00753,656.63504 c -0.4543,0.0757 -0.9466,0.1388 -1.4641,0.2146 -0.2146,0.0252 -0.4292,0.0631 -0.6564,0.0883 -0.4418,0.0631 -0.9088,0.1262 -1.3885,0.1894 -0.24,0.0378 -0.48,0.0631 -0.7321,0.1009 -0.3913,0.0506 -0.8078,0.1137 -1.2243,0.1515 -0.7448,0.101 -1.54,0.202 -2.3605,0.303 -0.3029,0.0378 -0.6058,0.0757 -0.9214,0.1135 -0.3029,0.0379 -0.6185,0.0758 -0.934,0.1137 -0.8963,0.1009 -1.843,0.2019 -2.8148,0.3155 -6.9676,0.77 -15.6266,1.54 -25.409,2.0322 -1.1234,0.05 -2.26,0.101 -3.3954,0.1515 q -4.866,0.1893 -10.06,0.29 c -0.8457,0.0126 -1.6913,0.0253 -2.55,0.0253 -1.2749,0.0126 -2.55,0.0252 -3.85,0.0252 -1.4262,0 -2.8652,-0.0126 -4.3168,-0.0252 -1.1992,-0.0127 -2.4109,-0.0253 -3.6226,-0.0631 h -0.3282 a 48.1083,48.1083 0 0 0 5.6422,-1.439 c 1.2117,-0.4039 2.6254,-0.871 4.2285,-1.4264 13.4431,1.048 33.0708,0.8591 56.1574,-1.1609 z"
     id="path5" />
  <path
     class="cls-3"
     d="m 871.48163,459.48504 c -14.9114,-28.5512 -43.2969,-42.5535 -68.8419,-46.9165 -69.4232,-12.5626 -126.6176,44.105 -121.3783,102.1271 51.0216,-46.0634 107.3052,15.7466 81.3756,50.7382 a 35.0034,35.0034 0 0 1 -27.1678,13.7794 c -22.8157,0.7023 -67.2357,-1.2769 -77.8113,0.9014 -30.4485,4.5667 -61.7943,29.9741 -62.3932,59.8587 -0.0277,0.007 -49.4591,-0.005 -85.6812,0 -29.4557,-0.6811 -49.8848,-0.9841 -60.5876,33.6135 a 31.5005,31.5005 0 0 1 18.3025,-16.6994 c 0.4292,-0.1641 0.8836,-0.303 1.338,-0.4545 0.6527,-0.1786 0.1677,-0.0649 1.8933,-0.5175 49.4645,-10.5811 66.2342,54.7818 25.617,63.239 a 28.6663,28.6663 0 0 1 -3.51,0.2392 h -145.1884 c -18.648,-20.1343 -30.6062,-39.19 -39.6849,-63.2888 157.258,-13.5282 316.32,-101.7352 282.1115,-252.2091 -5.1485,124.585 -148.1215,197.3208 -239.044,202.5525 -52.2179,33.2409 -85.6688,45.38 -114.8515,54.2134 -37.2519,-1.1624 -77.5287,-6.4631 -110.2065,-28.8293 -93.183101,-79.3036 -79.842001,-204.5173 -4.0138,-262.9258 v -0.0127 c 41.74,-35.2306 91.8174,-71.3522 134.8708,-101.85 0.1389,-0.0884 0.2524,-0.1768 0.3787,-0.265 a 0.39,0.39 0 0 0 0.0884,-0.0632 c 0.17,-0.11 0.33,-0.2446 0.833,-0.5806 16.39,-32.8546 33.6126,-63.3708 55.3242,-92.7245 v -0.0126 c 131.41,-186.602003 354.0511,-46.2852 330.6574,105.1071 a 0.3494,0.3494 0 0 0 -0.0126,0.1135 172.7647,172.7647 0 0 1 -6.7657,29.2463 v 0.0126 c -0.2525,0.7826 -0.5048,1.54 -0.77,2.2847 v 0.0125 c -0.8379,2.37 -1.4892,4.2738 -3.08,8.1921 -0.6355,1.7135 -3.5741,8.0232 -3.4081,7.5229 72.2279,-0.8674 147.9177,-3.443 201.1765,55.5513 1.9382,2.194 3.8591,4.282 7.2074,8.47 l 0.0378,0.0379 a 174.6957,174.6957 0 0 1 33.1847,69.5362 z"
     id="path6" />
  <path
     class="cls-3"
     d="m 122.55433,371.11504 c 0,0 -40.076201,-102.031 43.2319,-173.9789 83.3081,-71.9479 184.2876,-6.732 184.2876,-6.732 l -57.6429,139.2676 -137.5842,34.0806 z"
     id="path7" />
  <path
     class="cls-3"
     d="m 644.07153,259.19644 c 0,0 9.4668,-8.9409 25.35,-8.9409 15.8832,0 39.7607,14.9892 39.7607,49.07 0,34.0808 -32.5554,79.5739 -32.5554,79.5739 l -44.0207,-10.9394 -49.8587,-54.4869 z"
     id="path8" />
  <path
     class="cls-4"
     d="m 638.71093,443.69444 c 0,124.8991 -107.0887,185.1964 -129.1275,196.279 h -20.1325 a 46.9381,46.9381 0 0 0 -5.7811,0.3534 c -0.4039,0.05 -0.7952,0.101 -1.1739,0.164 a 39.06,39.06 0 0 0 -6.4627,1.54 c -0.3913,0.1262 -0.7826,0.2651 -1.1612,0.404 -1.1361,0.4165 -2.2342,0.8835 -3.2818,1.3884 -0.3535,0.1641 -0.6943,0.3408 -1.0351,0.5176 -0.3408,0.1768 -0.669,0.3533 -1.01,0.5427 a 36.6626,36.6626 0 0 0 -3.711,2.3982 c -0.568,0.404 -1.1234,0.8332 -1.6535,1.2875 a 38.0586,38.0586 0 0 0 -4.4558,4.3043 q -0.3217,0.3408 -0.6058,0.6816 c -0.4418,0.53 -0.871,1.0477 -1.2623,1.5652 -0.1767,0.2145 -0.3408,0.4417 -0.5049,0.6564 q -1.0034,1.3442 -1.8554,2.6886 c -0.1641,0.2524 -0.3282,0.5048 -0.48,0.7573 a 48.7616,48.7616 0 0 0 -2.7643,5.1626 c -0.1137,0.2272 -0.2146,0.4544 -0.3156,0.6816 -0.2651,0.568 -0.4923,1.1108 -0.6942,1.6282 -0.101,0.2147 -0.1767,0.4166 -0.2525,0.6185 -0.4923,1.2244 -0.8709,2.3226 -1.1612,3.2566 -0.1389,0.4166 -0.2525,0.7953 -0.3535,1.1487 -0.0379,0.1262 -0.0757,0.2524 -0.101,0.3661 -0.1766,0.6311 -0.29,1.0981 -0.3534,1.3632 a 0.6517,0.6517 0 0 0 -0.0252,0.1388 0.1787,0.1787 0 0 0 -0.0253,0.0758 0.0952,0.0952 0 0 0 -0.0126,0.05 v 0.0127 l -0.0126,0.0126 c 0,0 50.3257,-0.4292 50.5781,44.6835 a 24.0061,24.0061 0 0 1 -6.7151,0.9718 h -145.36 c -0.4922,-0.5175 -0.9845,-1.035 -1.4515,-1.5525 -0.6817,-0.7195 -1.3506,-1.439 -1.9944,-2.1585 a 189.9088,189.9088 0 0 1 -23.6923,-32.78 c -0.29,-0.4923 -0.5806,-0.9972 -0.8457,-1.4894 -1.1361,-2.02 -2.1837,-3.9635 -3.13,-5.8064 -0.3661,-0.6942 -0.7069,-1.3758 -1.0477,-2.0448 -1.9565,-3.8877 -3.4965,-7.3084 -4.67,-10.0854 -0.0884,-0.2019 -0.1768,-0.4165 -0.2651,-0.6184 -0.4923,-1.1866 -0.9215,-2.2469 -1.2748,-3.1683 -0.0758,-0.1767 -0.139,-0.3534 -0.202,-0.5175 -0.202,-0.5427 -0.3787,-1.0224 -0.5428,-1.439 q -0.1135,-0.3408 -0.2272,-0.6437 c -0.0757,-0.2272 -0.1515,-0.4292 -0.2146,-0.6059 -0.05,-0.1514 -0.0883,-0.2777 -0.1262,-0.3786 57.3059,-5.6423 133.6212,-22.3166 189.993,-58.4167 87.7259,-56.17 96.9782,-123.7 96.9782,-151.6838 0,-15.816 -1.4137,-29.019 -4.86,-42.1086 a 172.1155,172.1155 0 0 0 -11.7515,-31.1016 c -12.2059,-25.4469 -44.6077,-55.8543 -44.6077,-55.8543 5.8694,1.2244 13.9226,0.9214 22.4932,-1.1991 l 49.6946,24.5506 c 12.8243,21.9378 33.0074,62.9102 33.0074,103.403 z"
     id="path9" />
  <path
     class="cls-2"
     d="m 427.48733,380.99884 c 0,0 -60.2091,0 -126.25,57.9875 -18.58,16.3208 -37.6275,37.2235 -55.93,64.0336 a 337.5293,337.5293 0 0 0 -35.62,69.2467 c -13.607,36.6051 -17.4569,68.3505 -17.76,91.5 -0.3408,25.2324 3.5216,40.2656 3.5216,40.2656 l -51.1209,-29.6627 -12.8371,-34.8127 c 0,0 4.0013,-89.8339 72.5791,-172.7254 27.2355,-32.9055 57.7177,-60.8387 88.6838,-79.5311 a 141.05,141.05 0 0 1 120.4216,-11.8853 c 8.6345,3.0932 13.9257,5.4125 14.2866,5.5711 a 0.0392,0.0392 0 0 0 0.0253,0.0127 z"
     id="path10" />
  <path
     class="cls-5"
     d="m 594.73463,446.00444 c 0,27.9839 -9.2523,95.5139 -96.9782,151.6838 -56.3718,36.1 -132.6871,52.7744 -189.993,58.4167 -1.9186,0.1893 -3.8246,0.366 -5.6928,0.53 h -0.0631 c -23.0864,2.02 -42.7143,2.2089 -56.1572,1.1612 a 467.3984,467.3984 0 0 0 104.9806,-51.3479 c 18.5677,-0.6943 65.17,-6.1093 124.836,-39.685 69.9283,-39.3441 110.0424,-94.2517 114.2078,-162.8674 3.4462,13.0892 4.8599,26.2926 4.8599,42.1086 z"
     id="path11" />
  <path
     class="cls-6"
     d="m 533.51573,316.93994 c 0,0 32.4018,30.4074 44.6077,55.8543 a 172.1155,172.1155 0 0 1 11.7515,31.1016 c -4.1654,68.6157 -44.2795,123.5233 -114.2078,162.8674 -59.6662,33.5757 -106.2683,38.9907 -124.8362,39.685 2.9032,-1.906 5.8064,-3.8878 8.7095,-5.92 43.3076,-30.2938 86.4007,-82.7274 98.9347,-121.5288 a 66.793,66.793 0 0 0 3.6227,-20.158 c 0,-20.1959 -10.7291,-39.2811 -41.49,-39.2811 -7.75,0 -16.7878,1.6283 -26.8731,5.3393 -29.9152,10.9815 -68.9312,40.24 -110.2445,99.2629 0,0 9.5426,-53.38 17.7472,-85.1762 66.0406,-57.9875 126.25,-57.9875 126.25,-57.9875 a 0.0392,0.0392 0 0 1 -0.0253,-0.0126 311.962,311.962 0 0 0 -61.7869,-18.58 212.4742,212.4742 0 0 0 -38.9528,-3.9129 c -56.3213,0 -118.8024,33.4494 -118.8024,33.4494 0,0 29.0316,-37.5517 76.9969,-56.0184 0,0 0.3155,-1.83 0.6437,-4.544 a 94.0325,94.0325 0 0 0 0.77,-11.07 c 0,-6.6394 -8.81,-39.4451 -40.619,-45.5544 a 55.4812,55.4812 0 0 0 -10.6534,-0.9845 c -25.4089,0 -39.9247,18.3025 -39.9247,18.3025 0,0 -3.37,-26.3557 8.3056,-49.7072 11.6756,-23.3515 37.6653,-49.2275 79.1048,-49.2275 a 96.4827,96.4827 0 0 1 15.98,1.338 90.27,90.27 0 0 1 42.1464,18.6433 c 17.0024,13.8595 28.7539,35.0778 28.7539,63.9579 0,27.984 -12.7234,42.9163 -12.7234,42.9163 0,0 43.32,-3.5469 82.45,21.42 24.8536,15.8538 48.0283,43.2193 57.3437,90.2883 0,0 19.5648,-10.7291 19.5648,-39.13 0,-51.752 -58.9089,-68.7922 -58.9089,-129.7965 0,-56.599 46.9176,-75.1035 74.27,-75.1035 28.716,0 73.21,17.2423 73.21,67.732 0,1.3885 -0.0378,2.7517 -0.1135,4.1023 -0.9846,17.886 -8.4571,31.0765 -18.4667,40.3413 a 69.2537,69.2537 0 0 1 -30.0414,15.8917 c -8.5705,2.121 -16.6237,2.424 -22.4931,1.1996 z"
     id="path12" />
  <path
     class="cls-7"
     d="m 458.47533,478.99944 c -12.534,38.8014 -55.6271,91.235 -98.9347,121.5288 -2.9031,2.0322 -5.8063,4.014 -8.7095,5.92 a 467.3984,467.3984 0 0 1 -104.9808,51.348 c -1.6031,0.5554 -3.0168,1.0225 -4.2285,1.4264 a 48.1083,48.1083 0 0 1 -5.6422,1.439 c -12.9507,2.6128 -33.298,3.0672 -44.0523,3.105 q 0.0189,-1.0791 0.0378,-2.1963 c 0.0127,-0.7446 0.0379,-1.4894 0.0631,-2.2467 0.0253,-0.8583 0.0632,-1.7419 0.101,-2.6255 0,-0.1136 0.0127,-0.2272 0.0127,-0.3535 0.0252,-0.5806 0.05,-1.1738 0.0883,-1.7671 0.2019,-3.9 0.5049,-8.0026 0.9341,-12.2942 0.0883,-0.871 0.1767,-1.7419 0.2776,-2.6255 a 266.1285,266.1285 0 0 1 4.317,-26.5576 c 0.1892,-0.9088 0.3912,-1.8176 0.5932,-2.7391 q 1.5525,-6.8917 3.5469,-14.1119 0.3976,-1.4579 0.8331,-2.9158 c 0.3029,-1.06 0.6185,-2.1332 0.934,-3.1934 0.24,-0.7826 0.48,-1.5652 0.7322,-2.3478 1.5651,-5.0616 3.3322,-10.25 5.2888,-15.5256 a 261.8167,261.8167 0 0 0 71.5944,0.4923 c 30.824,-3.9887 75.6967,-10.8048 126.6157,-47.8643 a 336.881,336.881 0 0 0 50.5781,-45.8952 z"
     id="path13" />
  <path
     class="cls-8"
     d="m 462.09803,458.84144 a 66.793,66.793 0 0 1 -3.6227,20.158 336.881,336.881 0 0 1 -50.5781,45.8956 c -50.919,37.06 -95.7917,43.8756 -126.6157,47.8643 a 261.8167,261.8167 0 0 1 -71.5944,-0.4923 337.5293,337.5293 0 0 1 35.62,-69.2467 c 18.3025,-26.81 37.35,-47.7128 55.93,-64.0336 -8.2046,31.7959 -17.7472,85.1762 -17.7472,85.1762 41.3133,-59.0226 80.3293,-88.2814 110.2445,-99.2629 10.0853,-3.711 19.1229,-5.3393 26.8731,-5.3393 30.7614,-4e-4 41.4905,19.0848 41.4905,39.2807 z"
     id="path14" />
  <path
     class="cls-7"
     d="m 742.21513,407.72054 -136.5116,-67.4291 -49.6946,-24.5506 a 69.2537,69.2537 0 0 0 30.0414,-15.8917 z"
     id="path15" />
  <path
     class="cls-8"
     d="m 742.21513,407.72054 -156.1648,-107.8714 c 10.01,-9.2648 17.4821,-22.4553 18.4667,-40.3413 l 17.0907,18.3909 18.4667,19.88 25.8255,27.8072 h 0.0126 z"
     id="path16" />
  <path
     class="cls-9"
     d="m 604.51703,259.50784 c 0.0757,-1.3506 0.1135,-2.7138 0.1135,-4.1023 0,-50.49 -44.4941,-67.732 -73.21,-67.732 -27.3528,0 -74.27,18.5045 -74.27,75.1035 0,61.0043 58.9089,78.0445 58.9089,129.7965 0,28.4 -19.5648,39.13 -19.5648,39.13 -9.3154,-47.069 -32.49,-74.4345 -57.3437,-90.2883 -8.4444,-10.8806 -25.4343,-37.3624 -25.4343,-74.119 0,-16.3081 10.199,-114.9652 114.7507,-114.9652 80.0388,0 97.6177,87.9322 93.1409,125.5681 z"
     id="path17"
     style="fill:url(#linear-gradient)" />
  <circle
     class="cls-10"
     cx="556.03003"
     cy="255.12044"
     r="15.5414"
     id="circle17" />
</svg>
